<?xml version="1.0" encoding="utf-8"?>
<!-- Generator: Adobe Illustrator 16.2.1, SVG Export Plug-In . SVG Version: 6.00 Build 0)  -->
<!DOCTYPE svg PUBLIC "-//W3C//DTD SVG 1.1//EN" "http://www.w3.org/Graphics/SVG/1.1/DTD/svg11.dtd">
<svg version="1.1" id="Layer_1" xmlns="http://www.w3.org/2000/svg" xmlns:xlink="http://www.w3.org/1999/xlink" x="0px" y="0px"
	 width="356.332px" height="97.082px" viewBox="0 0 356.332 97.082" enable-background="new 0 0 356.332 97.082"
	 xml:space="preserve">
<g>
	<polygon opacity="0.1" fill-rule="evenodd" clip-rule="evenodd" points="306.214,82.646 234.559,8.295 25.588,80.716 	"/>
	<path d="M306.433,82.689l-0.264-0.004L25.218,80.762l0.201-0.07L234.664,8.164l0.103,0.108L306.433,82.689z M25.958,80.672
		l280.036,1.932L234.458,8.425L25.958,80.672z"/>
	<path opacity="0.1" fill-rule="evenodd" clip-rule="evenodd" d="M298.774,78.151c-20.238-18.019-70.335-62.634-70.335-62.634
		L2.479,87.221l303.706-2.467C306.186,84.754,301.285,80.389,298.774,78.151z"/>
	<path d="M306.52,84.812l-0.387,0.004L1.877,87.295l0.354-0.113l226.354-71.84l0.154,0.139c0,0,50.057,44.619,70.276,62.641
		c2.513,2.236,7.405,6.604,7.405,6.604L306.52,84.812z M3.082,87.148l302.768-2.452c-0.697-0.622-5.014-4.466-7.317-6.513
		c-19.599-17.436-66.923-59.539-70.237-62.488L3.082,87.148z"/>
	<path opacity="0.1" fill-rule="evenodd" clip-rule="evenodd" d="M301.576,73.706c-19.905-16.105-68.051-55.057-68.051-55.057
		L35.885,87.186l282.208-0.119C318.093,87.066,307.277,78.316,301.576,73.706z"/>
	<path d="M318.549,87.146l-0.537,0.001l-282.854,0.13l0.397-0.137l198.135-68.729l0.23,0.188l67.984,55.065
		c5.692,4.61,16.499,13.36,16.499,13.36L318.549,87.146z M36.609,87.096l281.027-0.108c-1.3-1.05-11.072-8.946-16.387-13.237
		l-67.886-54.861L36.609,87.096z"/>
	<path opacity="0.1" fill-rule="evenodd" clip-rule="evenodd" d="M312.988,66.938c-20.825-14.744-70.385-49.834-70.385-49.834
		L58.145,84.846l284.677,3.214C342.821,88.06,323.498,74.379,312.988,66.938z"/>
	<path d="M343.423,88.165l-0.729-0.007L57.296,84.949l0.438-0.159l185.037-67.983l0.317,0.225L343.423,88.165z M58.992,84.74
		l283.223,3.213l-99.778-70.555L58.992,84.74z"/>
	<path opacity="0.1" fill-rule="evenodd" clip-rule="evenodd" d="M302.822,53.383c-16.534-12.86-54.631-42.5-54.631-42.5
		L64.958,82.314l275.786,0.578C340.744,82.893,316.42,63.967,302.822,53.383z"/>
	<path d="M341.447,83.018l-0.835-0.003L63.939,82.449l184.464-71.948L341.447,83.018z M65.977,82.178l274.064,0.592l-92.059-71.505
		L65.977,82.178z"/>
	<path opacity="0.1" fill-rule="evenodd" clip-rule="evenodd" d="M283.083,38.152c-12.46-11.582-40.495-37.641-40.495-37.641
		L57.746,81.219l270.049-1.504C327.795,79.715,299.495,53.41,283.083,38.152z"/>
	<path d="M328.577,79.856l-0.918,0.007L56.592,81.388l0.547-0.238L242.857,0l0.456,0.422L328.577,79.856z M58.901,81.051
		l268.11-1.477L242.318,1.023L58.901,81.051z"/>
	<path opacity="0.1" fill-rule="evenodd" clip-rule="evenodd" d="M253.914,30.644C243.33,22.438,220.35,4.617,220.35,4.617
		L40.436,82.965l276.498-3.463C316.934,79.502,277.442,48.887,253.914,30.644z"/>
	<path d="M317.873,79.656L39.087,83.167L220.596,4.061l34.072,26.48c23.48,18.25,62.898,48.875,62.898,48.875L317.873,79.656z
		 M41.787,82.764l274.204-3.418c-3.556-2.751-40.475-31.307-62.828-48.602L220.107,5.173L41.787,82.764z"/>
	<path opacity="0.1" fill-rule="evenodd" clip-rule="evenodd" d="M233.127,27.641c-6.98-4.633-21.614-14.346-21.614-14.346
		L19.546,88.406l294.324-7.174C313.87,81.232,263.665,47.908,233.127,27.641z"/>
	<path d="M17.904,88.65l0.871-0.34l192.982-75.572l22.218,14.778l80.983,53.874l-1.199,0.028L17.904,88.65z M211.264,13.85
		L21.19,88.162l291.591-7.086L211.264,13.85z"/>
	<path opacity="0.1" fill-rule="evenodd" clip-rule="evenodd" d="M222.611,22.457c-2.462-1.506-7.46-4.561-7.46-4.561L34.452,91.184
		l287.895-7.736C322.347,83.447,261.019,45.945,222.611,22.457z"/>
	<path d="M32.698,91.451l0.903-0.367l181.774-73.792l108.193,66.323l-1.346,0.035L32.698,91.451z M214.928,18.498L36.203,90.914
		l284.916-7.633L214.928,18.498z"/>
	<path opacity="0.1" fill-rule="evenodd" clip-rule="evenodd" d="M212.23,22.852C157.282,46.795,60.976,88.757,60.976,88.757
		L343.62,84.59L223.85,17.791C223.85,17.791,216.08,21.174,212.23,22.852z"/>
	<path d="M345.025,84.787l-1.599,0.023L59.192,89.025l164.83-71.896l0.864,0.482L345.025,84.787z M62.759,88.487l279.451-4.095
		L223.677,18.449L62.759,88.487z"/>
	<path opacity="0.1" fill-rule="evenodd" clip-rule="evenodd" d="M197.863,27.833C152.523,48.764,72.04,85.914,72.04,85.914
		l282.737-4.705L230.01,12.997C230.01,12.997,208.382,22.979,197.863,27.833z"/>
	<path d="M356.332,81.425l-1.765,0.029L70.133,86.213l160.025-73.959l0.981,0.539L356.332,81.425z M73.953,85.613l279.26-4.619
		L229.864,13.736L73.953,85.613z"/>
	<path opacity="0.1" fill-rule="evenodd" clip-rule="evenodd" d="M173.432,30.879c-37.553,19.162-104.58,53.367-104.58,53.367
		l271.955-7.051l-114.8-73.145C226.007,4.051,190.348,22.246,173.432,30.879z"/>
	<path d="M66.813,84.594l0.89-0.455L226.188,3.136l1.105,0.704l115.11,73.582L66.813,84.594z M225.823,4.959L70.886,83.9
		L339.2,76.969L225.823,4.959z"/>
</g>
<g>
	<path fill="#C9C49F" stroke="#000000" stroke-width="0.5" stroke-miterlimit="10" d="M25.766,25.051
		c-1.787,1.471-2.68,3.414-2.68,5.834c0,2.424,1.09,4.348,3.275,5.775c2.182,1.43,7.223,3.117,15.123,5.062
		c7.898,1.945,14.031,4.863,18.396,8.75c4.365,3.891,6.551,9.568,6.551,17.029c0,7.463-2.799,13.516-8.396,18.158
		c-5.596,4.645-12.961,6.967-22.088,6.967c-13.18,0-25.049-4.883-35.605-14.646c0.161-0.197,10.914-13.377,11.074-13.574
		c8.971,7.857,17.268,11.787,24.889,11.787c3.412,0,6.092-0.732,8.037-2.203c1.945-1.467,2.918-3.451,2.918-5.951
		c0-2.502-1.033-4.486-3.096-5.955c-2.066-1.469-6.154-2.957-12.266-4.467c-9.688-2.301-16.771-5.299-21.256-8.99
		c-4.486-3.689-6.729-9.484-6.729-17.385c0-7.898,2.838-13.99,8.516-18.277c5.674-4.287,12.76-6.432,21.254-6.432
		c5.557,0,11.113,0.953,16.672,2.859c5.555,1.904,10.398,4.604,14.527,8.098c-0.129,0.186-9.277,13.389-9.406,13.574
		c-7.227-5.479-14.689-8.217-22.387-8.217C29.992,22.848,27.551,23.582,25.766,25.051z M23.657,25.809
		c-1.652,1.619-2.372,3.635-2.161,6.045c0.211,2.414,1.465,4.236,3.767,5.469c2.298,1.234,7.467,2.475,15.507,3.725
		c8.037,1.25,14.4,3.621,19.089,7.113c4.688,3.496,7.358,8.961,8.009,16.393c0.65,7.436-1.609,13.709-6.781,18.822
		c-5.169,5.115-12.304,8.07-21.396,8.865c-13.129,1.148-25.379-2.68-36.746-11.488c0.143-0.209,9.706-14.277,9.85-14.486
		c9.621,7.045,18.228,10.238,25.82,9.572c3.399-0.297,6.004-1.26,7.814-2.895c1.81-1.631,2.605-3.693,2.388-6.184
		c-0.218-2.492-1.419-4.379-3.603-5.662c-2.186-1.283-6.389-2.41-12.607-3.381c-9.852-1.447-17.17-3.816-21.959-7.104
		c-4.791-3.285-7.529-8.861-8.219-16.732C1.74,26.012,4.036,19.695,9.318,14.93c5.279-4.766,12.15-7.518,20.613-8.258
		c5.535-0.484,11.153-0.02,16.857,1.395c5.699,1.414,10.76,3.68,15.178,6.801c-0.112,0.195-8.076,14.146-8.188,14.342
		c-7.676-4.826-15.349-6.904-23.018-6.234C27.676,23.246,25.308,24.189,23.657,25.809z M21.622,26.746
		c-1.505,1.758-2.046,3.828-1.626,6.211c0.422,2.387,1.828,4.092,4.229,5.119c2.396,1.029,7.654,1.816,15.772,2.359
		c8.116,0.545,14.661,2.354,19.637,5.424c4.975,3.074,8.112,8.285,9.407,15.633c1.296,7.35-0.408,13.795-5.114,19.34
		c-4.704,5.547-11.555,9.111-20.543,10.695c-12.979,2.289-25.517-0.457-37.608-8.24c0.125-0.223,8.426-15.068,8.549-15.291
		c10.199,6.182,19.052,8.611,26.557,7.287c3.361-0.592,5.873-1.779,7.534-3.564c1.659-1.783,2.272-3.908,1.839-6.369
		c-0.435-2.463-1.795-4.238-4.082-5.326c-2.289-1.088-6.574-1.844-12.854-2.27c-9.94-0.584-17.437-2.305-22.494-5.162
		c-5.06-2.855-8.273-8.172-9.646-15.953c-1.371-7.779,0.365-14.271,5.211-19.479c4.845-5.207,11.449-8.549,19.816-10.023
		c5.472-0.965,11.109-0.992,16.914-0.08c5.802,0.91,11.041,2.729,15.713,5.451c-0.094,0.205-6.812,14.797-6.906,15.002
		c-8.067-4.141-15.893-5.541-23.475-4.205C25.402,23.844,23.125,24.99,21.622,26.746z"/>
	<path fill="#C9C49F" stroke="#000000" stroke-width="0.5" stroke-miterlimit="10" d="M85.873,40.471c0,0.992,0,27.707,0,28.697
		c0,2.463,0.635,4.389,1.904,5.775c1.27,1.391,2.777,2.084,4.525,2.084c3.334,0,6.15-1.506,8.455-4.525
		c0.113,0.215,6.555,12.291,6.668,12.504c-5.559,5.082-11.412,7.621-17.564,7.621s-11.354-2.023-15.6-6.072
		c-4.248-4.049-6.371-9.566-6.371-16.553c0-1.049,0-28.48,0-29.531c-0.067,0-7.434,0-7.502,0c0-0.199,0-12.66,0-12.859
		c0.068,0,7.435,0,7.502,0c0-0.443,0-18.73,0-19.172c0.391,0,17.592,0,17.982,0c0,0.441,0,18.729,0,19.172c0.288,0,15.191,0,15.48,0
		c0,0.199,0,12.66,0,12.859C101.064,40.471,86.161,40.471,85.873,40.471z M86.742,40.68c-0.086,0.988-2.415,27.602-2.502,28.59
		c-0.214,2.453,0.25,4.426,1.395,5.92s2.586,2.318,4.327,2.471c3.321,0.289,6.259-0.967,8.816-3.771
		c0.095,0.223,5.459,12.814,5.554,13.037c-5.98,4.576-12.033,6.596-18.162,6.061c-6.129-0.537-11.133-3.006-15.011-7.41
		c-3.879-4.402-5.513-10.084-4.903-17.043c0.091-1.047,2.481-28.373,2.573-29.42c-0.067-0.006-7.406-0.648-7.474-0.654
		c0.018-0.197,1.104-12.613,1.121-12.811c0.067,0.006,7.406,0.648,7.473,0.654c0.039-0.441,1.633-18.658,1.672-19.1
		c0.388,0.033,17.525,1.533,17.912,1.566c-0.038,0.441-1.632,18.658-1.67,19.1c0.287,0.025,15.134,1.324,15.422,1.35
		c-0.018,0.197-1.104,12.613-1.121,12.811C101.876,42.004,87.029,40.705,86.742,40.68z M87.59,40.965
		c-0.172,0.977-4.811,27.285-4.983,28.262c-0.427,2.426-0.137,4.432,0.874,6.02c1.008,1.588,2.373,2.533,4.094,2.838
		c3.283,0.578,6.319-0.416,9.111-2.988c0.076,0.229,4.322,13.242,4.396,13.471c-6.355,4.039-12.562,5.523-18.62,4.455
		c-6.06-1.068-10.829-3.965-14.309-8.689s-4.612-10.525-3.399-17.406c0.182-1.035,4.945-28.049,5.128-29.084
		c-0.067-0.012-7.321-1.291-7.388-1.303c0.034-0.195,2.198-12.469,2.232-12.664c0.066,0.012,7.322,1.291,7.389,1.303
		c0.076-0.436,3.252-18.445,3.328-18.881c0.385,0.068,17.325,3.055,17.709,3.123c-0.077,0.436-3.252,18.443-3.329,18.881
		c0.284,0.049,14.961,2.637,15.245,2.688c-0.035,0.195-2.199,12.469-2.232,12.664C102.551,43.604,87.874,41.016,87.59,40.965z"/>
	<path fill="#C9C49F" stroke="#000000" stroke-width="0.5" stroke-miterlimit="10" d="M145.271,62.143c0-1.17,0-33.361,0-34.531
		c0.316,0,17.664,0,17.98,0c0,4.029,0,60.033,0,64.062c-0.316,0-17.664,0-17.98,0c0-0.068,0-8.383,0-8.453
		c-4.447,6.271-10.182,9.406-17.207,9.406s-12.92-2.203-17.684-6.609s-7.145-10.934-7.145-19.588c0-1.48,0-37.34,0-38.818
		c0.318,0,17.664,0,17.98,0c0,1.195,0,33.693,0,34.891c0,9.842,3.611,14.764,10.836,14.764c3.572,0,6.668-1.289,9.289-3.869
		C143.961,70.818,145.271,67.066,145.271,62.143z M145.402,61.088c-0.103-1.166-2.908-33.234-3.01-34.402
		c0.316-0.027,17.596-1.539,17.912-1.566c0.352,4.016,5.232,59.805,5.584,63.82c-0.316,0.027-17.597,1.539-17.913,1.566
		c-0.007-0.068-0.731-8.352-0.737-8.422c-3.883,6.637-9.322,10.258-16.321,10.871c-6.999,0.611-13.062-1.068-18.191-5.043
		c-5.13-3.975-8.07-10.27-8.825-18.891c-0.129-1.475-3.254-37.197-3.383-38.672c0.316-0.027,17.596-1.539,17.912-1.566
		c0.104,1.189,2.938,33.566,3.041,34.758c0.857,9.805,4.885,14.395,12.082,13.764c3.559-0.311,6.529-1.865,8.915-4.664
		S145.83,65.992,145.402,61.088z M145.439,60.023c-0.203-1.152-5.793-32.854-5.996-34.008c0.312-0.055,17.396-3.066,17.708-3.121
		c0.7,3.969,10.425,59.121,11.125,63.09c-0.313,0.055-17.396,3.068-17.708,3.123c-0.013-0.07-1.456-8.258-1.469-8.326
		c-3.289,6.949-8.393,11.031-15.312,12.252c-6.918,1.219-13.105,0.074-18.561-3.438c-5.457-3.512-8.936-9.527-10.438-18.051
		c-0.258-1.457-6.484-36.771-6.741-38.23c0.312-0.055,17.395-3.066,17.707-3.121c0.208,1.178,5.851,33.184,6.06,34.359
		c1.709,9.695,6.119,13.914,13.234,12.66c3.518-0.621,6.343-2.428,8.475-5.424C145.656,68.795,146.295,64.873,145.439,60.023z"/>
	<path fill="#C9C49F" stroke="#000000" stroke-width="0.5" stroke-miterlimit="10" d="M212.833,3.766c0,1.055,0,29.936,0,30.99
		c-5-5.479-11.511-8.217-19.29-8.217c-7.78,0-14.686,3.037-20.479,9.109c-5.797,6.074-8.754,13.871-8.754,23.398
		c0,9.525,2.949,17.504,8.902,23.936c5.954,6.43,12.942,9.645,20.525,9.645c7.58,0,14.095-3.135,19.095-9.406
		c0,0.08,0,8.465,0,8.545c0.317,0,16.682,0,17,0c0-8.506,0-79.494,0-88C229.515,3.766,213.15,3.766,212.833,3.766z M216.645,5.309
		c-0.092,1.051-2.608,29.82-2.7,30.871c-4.504-5.893-10.75-9.188-18.5-9.865c-7.752-0.678-14.896,1.744-21.195,7.289
		c-6.304,5.545-9.929,13.057-10.759,22.547s1.411,17.695,6.782,24.621c5.37,6.924,12.053,10.734,19.605,11.396
		c7.552,0.66,14.314-1.895,19.842-7.707c-0.007,0.08-0.737,8.434-0.744,8.512c0.315,0.029,16.619,1.455,16.935,1.482
		c0.742-8.475,6.929-79.191,7.67-87.664C233.264,6.762,216.961,5.336,216.645,5.309z M220.309,7.178
		c-0.184,1.039-5.198,29.48-5.382,30.518c-3.973-6.262-9.908-10.09-17.569-11.439c-7.663-1.352-14.99,0.439-21.75,5.414
		c-6.762,4.975-11.029,12.143-12.684,21.523s-0.135,17.75,4.611,25.117s11.071,11.746,18.538,13.062
		c7.465,1.316,14.425-0.639,20.438-5.947c-0.014,0.078-1.47,8.336-1.483,8.414c0.312,0.057,16.429,2.898,16.742,2.953
		c1.477-8.377,13.804-78.285,15.28-86.664C236.737,10.074,220.621,7.232,220.309,7.178z M208.253,72.443
		c-2.898,3.295-6.412,4.941-10.539,4.941c-4.128,0-7.74-1.646-10.836-4.941c-3.096-3.293-4.644-7.521-4.644-12.682
		s1.507-9.486,4.524-12.979c3.017-3.492,6.628-5.24,10.836-5.24c4.207,0,7.76,1.727,10.658,5.18
		c2.896,3.453,4.346,7.781,4.346,12.979C212.599,64.902,211.149,69.15,208.253,72.443z M203.16,75.367
		c-3.851,2.105-7.716,2.451-11.594,1.039c-3.88-1.412-6.711-4.195-8.492-8.35c-1.783-4.154-1.792-8.656-0.026-13.506
		c1.765-4.848,4.66-8.396,8.69-10.648c4.029-2.25,8.021-2.656,11.975-1.217c3.953,1.438,6.701,4.275,8.244,8.512
		c1.54,4.236,1.422,8.799-0.355,13.684C209.822,69.768,207.008,73.264,203.16,75.367z M197.374,76.373
		c-4.338,0.66-8.089-0.336-11.25-2.988c-3.162-2.654-4.87-6.238-5.124-10.752c-0.255-4.512,1.277-8.746,4.595-12.699
		c3.316-3.953,7.251-6.297,11.809-7.035c4.556-0.736,8.445,0.248,11.669,2.951c3.223,2.705,4.834,6.311,4.835,10.82
		c-0.001,4.506-1.673,8.754-5.014,12.736C205.551,73.389,201.71,75.711,197.374,76.373z"/>
	<path fill="#C9C49F" stroke="#000000" stroke-width="0.5" stroke-miterlimit="10" d="M234.26,19.453
		c-2.023-2.023-3.036-4.504-3.036-7.441c0-2.936,1.013-5.418,3.036-7.443c2.024-2.023,4.504-3.035,7.441-3.035
		s5.42,1.012,7.444,3.035c2.022,2.025,3.036,4.508,3.036,7.443c0,2.938-1.014,5.418-3.036,7.441
		c-2.024,2.025-4.507,3.037-7.444,3.037S236.284,21.479,234.26,19.453z M235.295,20.361c-2.271-1.742-3.599-4.068-3.982-6.982
		c-0.383-2.91,0.297-5.504,2.04-7.775c1.742-2.271,4.069-3.598,6.981-3.98c2.911-0.385,5.505,0.295,7.775,2.037
		c2.271,1.744,3.599,4.072,3.982,6.982c0.383,2.914-0.297,5.506-2.039,7.775c-1.743,2.271-4.072,3.6-6.983,3.982
		C240.157,22.785,237.565,22.104,235.295,20.361z M236.439,21.125c-2.479-1.43-4.099-3.562-4.859-6.402
		c-0.76-2.834-0.424-5.494,1.008-7.975c1.43-2.479,3.564-4.098,6.401-4.859c2.837-0.76,5.496-0.424,7.976,1.008
		c2.479,1.432,4.1,3.566,4.859,6.402c0.76,2.838,0.424,5.496-1.007,7.975c-1.432,2.479-3.567,4.1-6.403,4.859
		C241.576,22.895,238.918,22.559,236.439,21.125z M250.634,91.674c-0.649,0-17.213,0-17.861,0c0-8.348,0-55.713,0-64.062
		c0.648,0,17.212,0,17.861,0C250.634,35.961,250.634,83.326,250.634,91.674z M253.392,90.775c-0.647,0.057-17.147,1.5-17.794,1.557
		c-0.728-8.318-4.855-55.504-5.584-63.82c0.647-0.057,17.147-1.502,17.794-1.557C248.535,35.271,252.663,82.457,253.392,90.775z
		 M256.06,89.637c-0.639,0.113-16.95,2.99-17.59,3.102c-1.449-8.223-9.675-54.867-11.124-63.09c0.639-0.113,16.95-2.99,17.59-3.102
		C246.385,34.77,254.61,81.414,256.06,89.637z"/>
	<g>
		<path fill="#C9C49F" stroke="#000000" stroke-width="0.5" stroke-miterlimit="10" d="M310.292,36.125
			c-6.43-6.389-14.509-9.586-24.232-9.586c-9.726,0-17.804,3.197-24.233,9.586c-6.429,6.391-9.645,14.229-9.645,23.518
			c0,9.287,3.216,17.109,9.645,23.459c6.43,6.352,14.508,9.525,24.233,9.525c9.724,0,17.803-3.174,24.232-9.525
			c6.43-6.35,9.646-14.172,9.646-23.459C319.938,50.354,316.722,42.516,310.292,36.125z M298.647,72.172
			c-0.858,0.857-1.759,1.59-2.696,2.209c-0.933,0.631-1.955,1.184-3.079,1.65c-1.125,0.465-2.239,0.797-3.345,1.01
			c-1.101,0.225-2.254,0.344-3.468,0.344c-4.646,0-8.455-1.646-11.432-4.941c-1.734-1.92-2.948-4.18-3.671-6.758
			c-1.202-2.242-1.893-4.596-2.033-7.07c-0.253-4.463,1.263-8.336,4.547-11.619c0.859-0.859,1.761-1.59,2.7-2.207
			c0.931-0.633,1.952-1.188,3.075-1.652c1.122-0.465,2.234-0.795,3.339-1.006c1.103-0.229,2.258-0.35,3.475-0.35
			c4.645,0,8.454,1.668,11.432,5.002c1.65,1.848,2.825,4,3.561,6.434c1.313,2.336,2.054,4.793,2.184,7.377
			C303.461,65.027,301.932,68.887,298.647,72.172z"/>
	</g>
	<path fill="#C9C49F" stroke="#000000" stroke-width="0.5" stroke-miterlimit="10" d="M318.885,11.438c0-0.113,0-7.83,0-7.941
		c1.161,0,24.396,0,25.558,0c0,0.072,0,6.373,0,6.447c-0.197,0.225-8.343,9.51-8.539,9.734c3.344,0.557,5.931,1.961,7.761,4.209
		c1.832,2.25,2.748,4.848,2.748,7.793c0,4.379-1.483,7.812-4.448,10.299c-2.967,2.488-6.759,3.732-11.375,3.732
		c-4.618,0-9.296-1.631-14.032-4.896c0.056-0.109,3.765-7.295,3.821-7.404c3.94,2.787,7.465,4.18,10.569,4.18
		c1.87,0,3.412-0.457,4.628-1.373c1.213-0.914,1.82-2.238,1.82-3.971c0-1.73-0.696-3.104-2.09-4.119s-3.325-1.523-5.792-1.523
		c-1.313,0-3.164,0.379-5.553,1.135c0-0.084,0-6.783,0-6.867c0.176-0.207,7.824-9.227,8.001-9.434
		C331.657,11.438,319.189,11.438,318.885,11.438z M317.785,12.584c-0.01-0.111-0.682-7.799-0.691-7.91
		c1.156-0.102,24.303-2.127,25.459-2.227c0.007,0.072,0.556,6.35,0.562,6.422c-0.177,0.24-7.482,10.201-7.658,10.441
		c3.379,0.264,6.078,1.438,8.099,3.518s3.159,4.588,3.416,7.523c0.382,4.363-0.797,7.912-3.534,10.648s-6.406,4.307-11.006,4.709
		c-4.601,0.402-9.402-0.816-14.406-3.656c0.047-0.113,3.115-7.594,3.162-7.707c4.169,2.432,7.801,3.512,10.894,3.242
		c1.862-0.164,3.36-0.754,4.49-1.771c1.129-1.018,1.618-2.389,1.468-4.115c-0.151-1.725-0.965-3.031-2.441-3.922
		s-3.444-1.227-5.901-1.012c-1.31,0.113-3.12,0.652-5.434,1.613c-0.008-0.084-0.592-6.756-0.599-6.84
		c0.157-0.223,6.991-9.873,7.148-10.096C330.509,11.473,318.089,12.559,317.785,12.584z M316.79,13.824
		c-0.02-0.109-1.359-7.711-1.379-7.82c1.144-0.201,24.025-4.236,25.169-4.438c0.013,0.072,1.106,6.277,1.119,6.35
		c-0.154,0.256-6.564,10.814-6.719,11.068c3.39-0.031,6.181,0.902,8.375,2.799c2.193,1.896,3.547,4.295,4.058,7.195
		c0.761,4.314-0.104,7.953-2.592,10.916c-2.488,2.967-6.007,4.85-10.554,5.652c-4.548,0.801-9.438,0.006-14.67-2.387
		c0.037-0.119,2.441-7.838,2.478-7.955c4.365,2.059,8.077,2.82,11.135,2.281c1.842-0.324,3.282-1.043,4.319-2.156
		c1.035-1.111,1.403-2.521,1.104-4.227c-0.301-1.705-1.226-2.936-2.773-3.693c-1.549-0.76-3.539-0.924-5.968-0.496
		c-1.295,0.229-3.052,0.924-5.272,2.082c-0.015-0.082-1.178-6.68-1.192-6.762c0.138-0.234,6.104-10.445,6.241-10.68
		C329.368,11.607,317.09,13.771,316.79,13.824z"/>
</g>
</svg>
